<?xml version="1.0" encoding="UTF-8" standalone="no"?>
<svg
   xmlns:dc="http://purl.org/dc/elements/1.1/"
   xmlns:cc="http://creativecommons.org/ns#"
   xmlns:rdf="http://www.w3.org/1999/02/22-rdf-syntax-ns#"
   xmlns:svg="http://www.w3.org/2000/svg"
   xmlns="http://www.w3.org/2000/svg"
   xmlns:sodipodi="http://sodipodi.sourceforge.net/DTD/sodipodi-0.dtd"
   xmlns:inkscape="http://www.inkscape.org/namespaces/inkscape"
   viewBox="0 0 100 100"
   width="100"
   height="100"
   fill="#000000"
   id="svg2"
   version="1.1"
   inkscape:version="0.91 r13725"
   sodipodi:docname="light.svg"
   inkscape:export-filename="/Users/marie/Documents/Divers-doc/pour Daniel/figures/on.png"
   inkscape:export-xdpi="761.56396"
   inkscape:export-ydpi="761.56396">
  <metadata
     id="metadata10">
    <rdf:RDF>
      <cc:Work
         rdf:about="">
        <dc:format>image/svg+xml</dc:format>
        <dc:type
           rdf:resource="http://purl.org/dc/dcmitype/StillImage" />
        <dc:title />
      </cc:Work>
    </rdf:RDF>
  </metadata>
  <defs
     id="defs8" />
  <sodipodi:namedview
     pagecolor="#ffffff"
     bordercolor="#666666"
     borderopacity="1"
     objecttolerance="10"
     gridtolerance="10"
     guidetolerance="10"
     inkscape:pageopacity="0"
     inkscape:pageshadow="2"
     inkscape:window-width="640"
     inkscape:window-height="480"
     id="namedview6"
     showgrid="false"
     inkscape:zoom="6.14"
     inkscape:cx="50"
     inkscape:cy="50"
     inkscape:current-layer="layer2" />
  <g
     inkscape:groupmode="layer"
     id="layer1"
     inkscape:label="on"
     style="display:none">
    <g
       id="g4820"
       transform="translate(0.001008,3.515e-4)">
      <path
         id="path4796"
         d="m 59.888,70.332 c 2.031,-1.277 2.875,-4.239 2.422,-5.765 l -0.541,-4.415 c 8.007,-4.104 13.918,-12.381 13.918,-21.997 0,-13.68 -11.509,-24.81 -25.189,-24.81 -13.68,0 -24.769,11.09 -24.769,24.769 0,9.616 5.491,17.933 13.498,22.037 l -0.541,4.415 c 0,2.568 1.674,4.764 3.986,5.551"
         inkscape:connector-curvature="0"
         style="fill:#fef6aa" />
    </g>
    <path
       style="fill:none;fill-rule:evenodd;stroke:#000000;stroke-width:1px;stroke-linecap:butt;stroke-linejoin:miter;stroke-opacity:1"
       d="m 19.259259,20.925926 4.814815,2.777778"
       id="path5046"
       inkscape:connector-curvature="0" />
    <path
       style="fill:none;fill-rule:evenodd;stroke:#000000;stroke-width:1px;stroke-linecap:butt;stroke-linejoin:miter;stroke-opacity:1"
       d="m 16.296296,30.555556 4.62963,0.555555"
       id="path5048"
       inkscape:connector-curvature="0" />
    <path
       style="fill:none;fill-rule:evenodd;stroke:#000000;stroke-width:1px;stroke-linecap:butt;stroke-linejoin:miter;stroke-opacity:1"
       d="m 15,39.259259 5,0"
       id="path5050"
       inkscape:connector-curvature="0" />
    <path
       style="fill:none;fill-rule:evenodd;stroke:#000000;stroke-width:1px;stroke-linecap:butt;stroke-linejoin:miter;stroke-opacity:1"
       d="m 16.296296,48.518519 5.185185,-1.111112"
       id="path5052"
       inkscape:connector-curvature="0" />
    <path
       style="fill:none;fill-rule:evenodd;stroke:#000000;stroke-width:1px;stroke-linecap:butt;stroke-linejoin:miter;stroke-opacity:1"
       d="m 19.814815,57.407407 4.629629,-3.333333"
       id="path5054"
       inkscape:connector-curvature="0" />
    <path
       style="fill:none;fill-rule:evenodd;stroke:#000000;stroke-width:1px;stroke-linecap:butt;stroke-linejoin:miter;stroke-opacity:1"
       d="m 76.851852,54.259259 4.444444,3.148148"
       id="path5056"
       inkscape:connector-curvature="0" />
    <path
       style="fill:none;fill-rule:evenodd;stroke:#000000;stroke-width:1px;stroke-linecap:butt;stroke-linejoin:miter;stroke-opacity:1"
       d="m 79.814815,46.851852 4.629629,1.296296"
       id="path5058"
       inkscape:connector-curvature="0" />
    <path
       style="fill:none;fill-rule:evenodd;stroke:#000000;stroke-width:1px;stroke-linecap:butt;stroke-linejoin:miter;stroke-opacity:1"
       d="m 81.111111,39.259259 4.814815,0"
       id="path5060"
       inkscape:connector-curvature="0" />
    <path
       style="fill:none;fill-rule:evenodd;stroke:#000000;stroke-width:1px;stroke-linecap:butt;stroke-linejoin:miter;stroke-opacity:1"
       d="m 79.814815,31.481481 5.37037,-1.666666"
       id="path5062"
       inkscape:connector-curvature="0" />
    <path
       style="fill:none;fill-rule:evenodd;stroke:#000000;stroke-width:1px;stroke-linecap:butt;stroke-linejoin:miter;stroke-opacity:1"
       d="m 77.222222,23.888889 4.814815,-2.777778"
       id="path5064"
       inkscape:connector-curvature="0" />
  </g>
  <g
     inkscape:groupmode="layer"
     id="layer2"
     inkscape:label="off"
     style="display:inline">
    <path
       transform="translate(0.001008,3.515e-4)"
       id="path4810"
       d="m 56.874,83.073 c 0,2.833 -4.427,3.552 -5.745,3.552 -3.106,0 -5.623,-1.646 -5.623,-3.677"
       inkscape:connector-curvature="0"
       style="display:inline;fill:#6474a6" />
    <path
       transform="translate(0.001008,3.515e-4)"
       id="path4806"
       d="m 57.682,82.614 -12.907,0 c -1.401,0 -2.547,-1.146 -2.547,-2.547 l 0,-0.907 c 0,-1.401 1.146,-2.547 2.547,-2.547 l 12.907,0 c 1.401,0 2.547,1.146 2.547,2.547 l 0,0.907 c -10e-4,1.401 -1.147,2.547 -2.547,2.547 z"
       inkscape:connector-curvature="0"
       style="display:inline;fill:#8f9eb6" />
    <path
       transform="translate(0.001008,3.515e-4)"
       id="path4802"
       d="m 57.228,76.614 -13.636,0 c -1.573,0 -2.861,-1.35 -2.861,-3 l 0,0 c 0,-1.65 1.287,-3 2.861,-3 l 14.325,0 c 1.573,0 2.861,1.35 2.861,3 l 0,0 c 0,0.895 0,0.895 -0.598,1.72"
       inkscape:connector-curvature="0"
       style="display:inline;fill:#8f9eb6" />
    <path
       d="m 50.498047,12.345703 c -14.209,0 -25.769531,11.560531 -25.769531,25.769531 0,9.469 5.124875,18.06461 13.421875,22.59961 l -0.457032,3.730468 c -0.005,0.04 -0.0078,0.08009 -0.0078,0.121094 0,2.499346 1.363738,4.752849 3.486328,5.957032 -0.871187,0.73395 -1.439453,1.838058 -1.439453,3.089843 0,1.552417 0.86531,2.886113 2.115234,3.548828 -0.390481,0.569797 -0.61914,1.256558 -0.61914,1.998047 l 0,0.90625 c 0,1.886559 1.483677,3.419879 3.34375,3.527344 0.433298,2.306145 3.153991,4.03125 6.55664,4.03125 2.08427,0 6.263094,-1.001136 6.701172,-4.027344 1.886623,-0.07988 3.398438,-1.626179 3.398438,-3.53125 l 0,-0.90625 c 0,-1.956 -1.590875,-3.546875 -3.546875,-3.546875 l -12.90625,0 c -0.0067,0 -0.01286,0.0019 -0.01953,0.002 l -1.164062,0 c -1.025,0 -1.859375,-0.897 -1.859375,-2 0,-1.103 0.834375,-2 1.859375,-2 l 14.326172,0 c 1.025,0 1.859375,0.897 1.859375,2 0,0.571 -0.0012,0.569813 -0.408203,1.132813 -0.324,0.447 -0.222391,1.072484 0.224609,1.396484 0.447,0.323 1.070531,0.224344 1.394531,-0.222656 0.699,-0.965 0.789063,-1.157594 0.789063,-2.308594 0,-2.206 -1.730375,-4 -3.859375,-4 l -14.326172,0 c -0.02276,0 -0.04374,0.0074 -0.06641,0.0078 -0.117115,-0.201268 -0.293932,-0.368294 -0.53125,-0.449219 -1.961,-0.667 -3.284594,-2.489875 -3.308594,-4.546875 l 0.533203,-4.351562 c 0.052,-0.416 -0.162156,-0.820719 -0.535156,-1.011719 -7.99,-4.094 -12.955078,-12.197485 -12.955078,-21.146485 0,-13.106 10.663531,-23.769531 23.769531,-23.769531 13.337,0 24.189453,10.682547 24.189453,23.810547 0,8.658 -5.251,16.943422 -13.375,21.107422 -0.373,0.191 -0.587156,0.594719 -0.535156,1.011719 l 0.533203,4.351562 c -0.016,1.283 -0.529125,2.486485 -1.453125,3.396485 -0.394,0.388 -0.397766,1.022015 -0.0098,1.416015 0.388,0.393 1.020063,0.397766 1.414063,0.0098 1.321,-1.303 2.048828,-3.03586 2.048828,-4.88086 0,-0.04 -0.0028,-0.08205 -0.0078,-0.123047 l -0.457031,-3.730468 c 8.432,-4.601 13.841797,-13.380594 13.841797,-22.558594 0,-14.232 -11.749453,-25.810547 -26.189453,-25.810547 z m 1.230469,7.017578 c -0.276,0 -0.5,0.224 -0.5,0.5 0,0.276 0.224,0.5 0.5,0.5 0.986,0 1.977359,0.08219 2.943359,0.242188 5.596,0.928 10.467297,4.516562 13.029297,9.601562 0.088,0.174 0.264265,0.275391 0.447266,0.275391 0.076,0 0.153609,-0.01769 0.224609,-0.05469 0.247,-0.124 0.346656,-0.422922 0.222656,-0.669922 -2.705,-5.368999 -7.849766,-9.159671 -13.759765,-10.138671 -1.02,-0.169 -2.066422,-0.25586 -3.107422,-0.25586 z m 17.722656,13.296875 c -0.06437,-0.0077 -0.131266,-0.0039 -0.197266,0.01563 -0.266,0.077 -0.41975,0.353141 -0.34375,0.619141 0.459,1.599 0.69336,3.261359 0.69336,4.943359 0,0.276 0.224,0.5 0.5,0.5 0.277,0 0.5,-0.222 0.5,-0.5 0,-1.775 -0.247422,-3.532703 -0.732422,-5.220703 -0.057,-0.19875 -0.226797,-0.334312 -0.419922,-0.357422 z m -12.988281,10.5 c -0.2895,-0.01625 -0.598157,0.04278 -0.910157,0.175782 -0.838,0.357999 -1.51739,1.175281 -1.65039,1.988281 -0.227,1.391 0.230328,2.883672 1.236328,4.138672 -0.709,0.561 -1.5485,0.899609 -2.4375,0.974609 -0.994,0.087 -2.11,-0.329844 -3,-1.089844 0.685,-1.084 1.094844,-2.241265 1.339844,-3.197265 0.271,-1.059 0.140328,-1.83936 -0.388672,-2.31836 -0.404,-0.368 -0.967172,-0.481406 -1.576172,-0.316406 -0.812,0.216 -1.54425,0.879328 -1.78125,1.611328 -0.431,1.332 -0.08664,2.840719 0.943359,4.136719 0.053,0.066 0.10611,0.132312 0.16211,0.195312 -0.375,0.477 -0.820657,0.91711 -1.347657,1.28711 -0.25,0.176 -0.514156,0.328125 -0.785156,0.453125 -0.53,-1.309 -1.169875,-2.558625 -1.921875,-3.765625 -0.733,-1.177 -1.745219,-1.787 -2.699219,-1.625 -0.41,0.068 -0.806687,0.278047 -1.179687,0.623047 -0.727,0.673 -1.083297,1.50425 -1.029297,2.40625 0.065,1.084 0.728359,2.156312 1.818359,2.945312 1.225,0.886 2.865782,1.114359 4.425782,0.693359 1.463,4.091001 1.883328,8.818751 1.361328,14.71875 -0.025,0.275 0.178125,0.517016 0.453125,0.541016 0.015,0.002 0.03088,0.002 0.04687,0.002 0.256,0 0.472,-0.196031 0.5,-0.457031 0.536,-6.054 0.09894,-10.917531 -1.414063,-15.144531 0.346,-0.157 0.682953,-0.347266 1.001953,-0.572266 0.582,-0.408 1.073235,-0.889297 1.490235,-1.404297 1.08,0.894 2.430968,1.375485 3.667968,1.271485 1.113,-0.093 2.159204,-0.523375 3.033204,-1.234375 0.01,0.01 0.02025,0.0193 0.03125,0.0293 0.482,0.446001 1.010406,0.813704 1.566406,1.095704 -0.09396,0.167928 -0.172,0.324392 -0.261719,0.490234 -0.186093,-0.04847 -0.385901,0.0052 -0.494141,0.236328 -0.503993,1.077155 -0.895551,2.164291 -1.21875,3.259766 -0.04972,0.113995 -0.175964,0.386032 -0.201171,0.445312 -0.04591,0.108401 -0.04261,0.221168 -0.01367,0.326172 -0.916673,3.524876 -1.052662,7.149131 -0.980469,10.908203 0.012,0.643 1.012,0.645 1,0 -0.07327,-3.858781 0.05366,-7.612709 1.097656,-11.240234 0.539344,-1.232761 1.234242,-2.666596 2.011719,-4.041016 0.964,0.307 1.970062,0.359047 2.914063,0.123047 0.301999,-0.142 2.96425,-1.436531 3.28125,-3.269531 0.087,-0.507 0.02447,-1.276453 -0.769532,-2.064453 -0.453,-0.451 -1.008422,-0.626766 -1.607422,-0.509766 -1.414,0.278 -2.974765,2.317703 -4.259765,4.470703 -0.484,-0.243 -0.950953,-0.562078 -1.376953,-0.955078 0.04,-0.045 0.07919,-0.09267 0.117187,-0.138672 1.002,-1.211 1.486125,-2.770109 1.328125,-4.287109 -0.058,-0.552 -0.128656,-1.237531 -0.722656,-1.644531 -0.24,-0.164 -0.511281,-0.255235 -0.800781,-0.271485 z m -0.09961,0.998047 c 0.114,0 0.229078,0.02666 0.330078,0.09766 0.198,0.136 0.244922,0.452688 0.294922,0.929688 0.13,1.245 -0.271515,2.535015 -1.103515,3.541015 -0.009,0.011 -0.01834,0.02416 -0.02734,0.03516 -0.789,-1.018 -1.146703,-2.192391 -0.970703,-3.275391 0.078,-0.47 0.54064,-1.010469 1.05664,-1.230469 0.12,-0.052 0.269922,-0.09766 0.419922,-0.09766 z m -6.759765,0.285156 c 0.132,0 0.268,0.03191 0.375,0.128907 0.29,0.264 0.209797,0.869078 0.0918,1.330078 -0.207,0.809 -0.542984,1.779265 -1.083984,2.697265 -0.792,-1.019 -1.063187,-2.170062 -0.742187,-3.164062 0.132,-0.407 0.60889,-0.826125 1.08789,-0.953125 0.081,-0.022 0.175485,-0.03906 0.271485,-0.03906 z m -7.650391,2.339844 c 0.593,0 1.177016,0.592688 1.541016,1.179688 0.712,1.143 1.318218,2.325406 1.824218,3.566406 -1.241,0.303 -2.540515,0.125312 -3.478515,-0.554688 -0.845,-0.612 -1.357297,-1.411312 -1.404297,-2.195312 -0.036,-0.601 0.202937,-1.144281 0.710937,-1.613281 0.227,-0.211 0.450063,-0.335094 0.664063,-0.371094 0.048,-0.008 0.09558,-0.01172 0.142578,-0.01172 z M 62.5625,46.953125 c 0.185672,0.008 0.350625,0.08966 0.515625,0.253906 0.397,0.394 0.557281,0.781594 0.488281,1.183594 -0.193,1.122 -2.029953,2.209953 -2.626953,2.501953 -0.653,0.159 -1.362359,0.131547 -2.068359,-0.06445 1.216,-2.012 2.517047,-3.667375 3.498047,-3.859375 0.06675,-0.0135 0.131468,-0.0183 0.193359,-0.01563 z m -17.787109,30.660156 12.453125,0 0.453125,0 c 0.853,0 1.546875,0.693875 1.546875,1.546875 l 0,0.90625 c 0,0.853 -0.693875,1.546875 -1.546875,1.546875 l -12.90625,0 c -0.853,0 -1.546875,-0.693875 -1.546875,-1.546875 l 0,-0.90625 c 0,-0.853 0.693875,-1.546875 1.546875,-1.546875 z m 1.898437,6 9.085938,0 c -0.609068,1.513507 -3.688683,2.011719 -4.63086,2.011719 -2.109389,0 -3.92747,-0.871413 -4.455078,-2.011719 z"
       id="path4"
       inkscape:connector-curvature="0" />
  </g>
</svg>
